<svg id="Layer_1" data-name="Layer 1" xmlns="http://www.w3.org/2000/svg" viewBox="0 0 6005.547 1462.168"><defs><style>.cls-1{fill:#fff;stroke:#000;stroke-miterlimit:10;}</style></defs><path class="cls-1" d="M4200.367,6595.674s-5.1,12.558,58.42-32.179c35.646-25.1,105.15,6.823,159.638,11.416,59.953,5.053,56.328-44.927,110.456-39.594,63.718,6.278,120.82,21.032,165.348,20.747,48.382-.31,81.694-10.743,175.249-39.941,74.518-23.256,73.931,82.167,149.91,58.788,90.906-27.973,140.565-73.76,195.495-77.275,60.706-3.883,122.882,65.32,233.839,84.227,57.47,9.793,53.224-55.607,130.009-55.244,115.549.547,130.209,25.165,174.2,2.766,42.188-21.481,94.054,10.672,159.034,25.88,31.659,7.41,87.358-71.821,159.913-34.255,44.77,23.182,104.111-5.091,158.319-8.142,111.052-6.251,116.288,48.375,213.394,46.986,70.345-1.007,116.485-72.437,192.019-36.545,73.388,34.873,119.581,68.388,143.586,65.5,145.793-17.566,122.137-76.413,262.288-64.091,92.825,8.162,140.165,53.264,252.225,65.976,102.567,11.635,159.915-82.956,273.889-91.3,142.651-10.439,181.4,82.513,335.649,96.667,174.687,16.03,107.336-102.038,276.574-80.555,151.018,19.169,201.964,96.107,298.056,75.185,142.1-30.939,196.181-107.512,276.764-102.083,77.332,5.21,44.464,55.967,171.662,104.768,120.568,46.257,140.161-103.458,308.8-64.444,119.17,27.569,205.725,73.8,287.315,59.074,99.6-17.979,96.873-74.645,187.96-71.731,93.278,2.985,45.582,27.794,236.3,63.675,72.669,13.672,252.824,2.685,252.824,2.685V7949.5l-6004.545-9.091Z" transform="translate(-4194.453 -6487.833)"/></svg>