<svg id="Layer_1" data-name="Layer 1" xmlns="http://www.w3.org/2000/svg" viewBox="0 0 1920 1262.831"><defs><style>.cls-1{fill:#dbd8e3;}</style></defs><path class="cls-1" d="M6389.065,6864.03s18.989-45.637,68.247-49.323c47-3.517,66.959,32.626,113.825,28.2,56.159-5.3,59.865-60.255,108.274-65.076,67.3-6.7,106.09,94.92,177.679,88.937,43.773-3.658,44.778-42.947,102.721-54.23,60.11-11.7,86,25.324,136.036,17.353,87.388-13.92,91.459-140.111,147.141-143.166,69.92-3.837,112.381,192.459,202.666,193.058,58.975.391,84.806-83.076,144.364-78.091,58.05,4.859,64.933,86.782,119.379,91.106,61.97,4.922,118.8-130.777,214.01-148.819,81.386-15.422,114.627.439,195.109,69.5,65.66,56.344,190.549,52.839,190.549,52.839V7949.5l-1920-11.152V6864.03Z" transform="translate(-6389.065 -6686.669)"/></svg>