<?xml version="1.0" encoding="UTF-8" standalone="no"?>
<!DOCTYPE svg PUBLIC "-//W3C//DTD SVG 1.1//EN" "http://www.w3.org/Graphics/SVG/1.1/DTD/svg11.dtd">
<svg width="100%" height="100%" viewBox="0 0 3500 3500" version="1.1" xmlns="http://www.w3.org/2000/svg" xmlns:xlink="http://www.w3.org/1999/xlink" xml:space="preserve" xmlns:serif="http://www.serif.com/" style="fill-rule:evenodd;clip-rule:evenodd;stroke-linecap:round;stroke-linejoin:round;stroke-miterlimit:1.5;">
    <g transform="matrix(1,0,0,1,-98.5843,-47.8224)">
        <g transform="matrix(0.799582,0,0,0.799582,549.961,-20.402)">
            <path d="M1273.96,2347.14C1110.47,2361.85 890.399,2303.81 781.756,2362.94C673.113,2422.07 716.975,2634.39 622.1,2701.92C527.226,2769.45 323.45,2685.55 212.511,2768.13C95.855,2854.97 -121.824,3117.79 -77.837,3222.96C-33.85,3328.12 479.297,3294.57 476.432,3399.12C473.568,3503.67 -318.45,3760.76 -95.024,3850.27C128.403,3939.78 1462.75,3712.45 1816.99,3936.2C2294.36,4237.72 2619.73,4293.64 2609.15,4166.85C2568.37,3677.89 2578.95,3462.7 3036.89,3467.98C3310,3471.13 2973.37,3075.38 3061.18,2985.61C3221.59,2821.62 3458.72,2614.09 3359.49,2535.49C3260.26,2456.89 2634.07,2566.28 2465.79,2514.01C2365.72,2482.92 2453.55,2236.36 2349.78,2221.83C2151.14,2194.02 1535.29,2323.62 1273.96,2347.14Z" style="fill:rgb(32,32,32);"/>
            <clipPath id="_clip1">
                <path d="M1273.96,2347.14C1110.47,2361.85 890.399,2303.81 781.756,2362.94C673.113,2422.07 716.975,2634.39 622.1,2701.92C527.226,2769.45 323.45,2685.55 212.511,2768.13C95.855,2854.97 -121.824,3117.79 -77.837,3222.96C-33.85,3328.12 479.297,3294.57 476.432,3399.12C473.568,3503.67 -318.45,3760.76 -95.024,3850.27C128.403,3939.78 1462.75,3712.45 1816.99,3936.2C2294.36,4237.72 2619.73,4293.64 2609.15,4166.85C2568.37,3677.89 2578.95,3462.7 3036.89,3467.98C3310,3471.13 2973.37,3075.38 3061.18,2985.61C3221.59,2821.62 3458.72,2614.09 3359.49,2535.49C3260.26,2456.89 2634.07,2566.28 2465.79,2514.01C2365.72,2482.92 2453.55,2236.36 2349.78,2221.83C2151.14,2194.02 1535.29,2323.62 1273.96,2347.14Z"/>
            </clipPath>
            <g clip-path="url(#_clip1)">
                <g transform="matrix(1.25065,0,0,1.25065,-256.128,159.078)">
                    <path d="M751.696,1620.81C786.069,1631.69 698.69,1881.5 743.864,1999.35C803.909,2155.99 1146.34,2571.51 1111.96,2560.64C1077.59,2549.76 597.669,2090.72 537.624,1934.08C492.353,1815.99 717.323,1609.93 751.696,1620.81Z" style="fill:white;fill-opacity:0.12;"/>
                </g>
                <g transform="matrix(1.25065,0,0,1.25065,-256.128,159.078)">
                    <path d="M2298.98,1683.95C2277.64,1679.21 2087.16,2055.04 1978.87,2174.79C1889.32,2273.82 1627.94,2397.68 1649.28,2402.42C1670.62,2407.16 1998.63,2322.99 2106.92,2203.24C2215.2,2083.49 2320.32,1688.69 2298.98,1683.95Z" style="fill:white;fill-opacity:0.07;"/>
                </g>
            </g>
        </g>
        <g transform="matrix(1,0,0,1,345.166,106.794)">
            <path d="M1147.04,2255.26C1101.21,2293.88 942.356,2413.68 894.924,2515.74C847.491,2617.8 862.4,2809.59 862.443,2867.62C862.451,2878.6 893.29,2874.75 895.179,2863.93C904.761,2809.07 874.143,2635.12 919.932,2538.47C965.72,2441.81 1132.06,2331.21 1169.91,2284.01C1177.57,2274.45 1156.4,2247.37 1147.04,2255.26Z" style="fill:white;"/>
        </g>
        <g transform="matrix(-1,0,0,1,3074.14,164.306)">
            <path d="M1147.04,2255.26C1101.21,2293.88 942.356,2413.68 894.924,2515.74C847.491,2617.8 862.4,2809.59 862.443,2867.62C862.451,2878.6 893.29,2874.75 895.179,2863.93C904.761,2809.07 874.143,2635.12 919.932,2538.47C965.72,2441.81 1132.06,2331.21 1169.91,2284.01C1177.57,2274.45 1156.4,2247.37 1147.04,2255.26Z" style="fill:white;"/>
        </g>
        <g transform="matrix(0.799582,0,0,0.799582,549.961,-20.402)">
            <path d="M986.303,791.792C981.221,840.571 920.512,942.971 915.983,1023.59C910.527,1120.73 948.415,1314.09 953.563,1374.65C953.959,1379.3 951.357,1385.65 946.874,1386.94C941.45,1388.51 928.858,1380.34 921.023,1384.05C911.754,1388.44 892.759,1399.48 891.261,1413.3C889.05,1433.71 903.646,1478.44 907.758,1506.5C911.412,1531.45 910.621,1557.06 915.93,1581.71C921.454,1607.36 930.035,1635.35 940.901,1660.4C951.767,1685.46 974.48,1705.48 981.127,1732.06C990.487,1769.47 985.209,1835.08 997.062,1884.92C1010.11,1939.78 1031.21,2005.62 1059.4,2061.21C1088.28,2118.14 1151.62,2162.86 1170.3,2226.53C1189.52,2292.09 1175.92,2395.72 1174.75,2454.59C1173.92,2496.47 1160.53,2537.94 1163.27,2579.74C1167.54,2644.9 1181.83,2776.66 1200.38,2845.59C1214.71,2898.8 1228.93,2962.47 1274.61,2993.29C1325.9,3027.89 1427.82,3056.6 1508.1,3053.19C1591.97,3049.62 1699.54,3023.7 1777.86,2971.87C1865.63,2913.79 1977.71,2781.49 2034.72,2704.69C2076.74,2648.07 2115.2,2581.43 2119.91,2511.08C2125.14,2432.84 2077.83,2305.25 2066.15,2235.27C2058.19,2187.61 2043.74,2139.17 2049.8,2091.22C2055.95,2042.55 2088.95,1993.72 2103.05,1943.22C2117.98,1889.77 2126.73,1812.91 2139.37,1770.52C2148.01,1741.55 2167.53,1716.92 2178.9,1688.91C2194.02,1651.65 2217.92,1585.52 2230.07,1546.98C2239.28,1517.76 2254.69,1486.23 2251.8,1457.67C2248.9,1429.1 2221.72,1390.88 2212.69,1375.6C2209.66,1370.47 2197.38,1371.92 2197.64,1365.97C2200.07,1312.57 2221.99,1134.18 2227.26,1055.17C2230.88,1000.86 2235.01,946.017 2229.26,891.891C2222.4,827.241 2229.02,730.256 2186.06,667.267C2126.01,579.242 1995.29,418.547 1869,363.737C1742.7,308.928 1568.42,306.043 1428.27,338.408C1288.11,370.773 1108.37,492.51 1028.07,557.928C978.639,598.196 953.434,691.937 946.474,730.914C942.21,754.786 988.815,767.673 986.303,791.792Z" style="fill:rgb(201,142,108);"/>
            <clipPath id="_clip2">
                <path d="M986.303,791.792C981.221,840.571 920.512,942.971 915.983,1023.59C910.527,1120.73 948.415,1314.09 953.563,1374.65C953.959,1379.3 951.357,1385.65 946.874,1386.94C941.45,1388.51 928.858,1380.34 921.023,1384.05C911.754,1388.44 892.759,1399.48 891.261,1413.3C889.05,1433.71 903.646,1478.44 907.758,1506.5C911.412,1531.45 910.621,1557.06 915.93,1581.71C921.454,1607.36 930.035,1635.35 940.901,1660.4C951.767,1685.46 974.48,1705.48 981.127,1732.06C990.487,1769.47 985.209,1835.08 997.062,1884.92C1010.11,1939.78 1031.21,2005.62 1059.4,2061.21C1088.28,2118.14 1151.62,2162.86 1170.3,2226.53C1189.52,2292.09 1175.92,2395.72 1174.75,2454.59C1173.92,2496.47 1160.53,2537.94 1163.27,2579.74C1167.54,2644.9 1181.83,2776.66 1200.38,2845.59C1214.71,2898.8 1228.93,2962.47 1274.61,2993.29C1325.9,3027.89 1427.82,3056.6 1508.1,3053.19C1591.97,3049.62 1699.54,3023.7 1777.86,2971.87C1865.63,2913.79 1977.71,2781.49 2034.72,2704.69C2076.74,2648.07 2115.2,2581.43 2119.91,2511.08C2125.14,2432.84 2077.83,2305.25 2066.15,2235.27C2058.19,2187.61 2043.74,2139.17 2049.8,2091.22C2055.95,2042.55 2088.95,1993.72 2103.05,1943.22C2117.98,1889.77 2126.73,1812.91 2139.37,1770.52C2148.01,1741.55 2167.53,1716.92 2178.9,1688.91C2194.02,1651.65 2217.92,1585.52 2230.07,1546.98C2239.28,1517.76 2254.69,1486.23 2251.8,1457.67C2248.9,1429.1 2221.72,1390.88 2212.69,1375.6C2209.66,1370.47 2197.38,1371.92 2197.64,1365.97C2200.07,1312.57 2221.99,1134.18 2227.26,1055.17C2230.88,1000.86 2235.01,946.017 2229.26,891.891C2222.4,827.241 2229.02,730.256 2186.06,667.267C2126.01,579.242 1995.29,418.547 1869,363.737C1742.7,308.928 1568.42,306.043 1428.27,338.408C1288.11,370.773 1108.37,492.51 1028.07,557.928C978.639,598.196 953.434,691.937 946.474,730.914C942.21,754.786 988.815,767.673 986.303,791.792Z"/>
            </clipPath>
            <g clip-path="url(#_clip2)">
                <path d="M514.527,1708.58C584.004,1782.32 1004.94,1283.06 1148.55,1200.08C1214.33,1162.07 1337.21,1275.91 1376.21,1210.72C1420.53,1136.61 1354.58,852.571 1414.5,755.41C1474.43,658.249 1657.05,578.11 1735.77,627.754C1814.49,677.398 1826.55,947.604 1886.83,1053.27C1935.78,1139.09 2054.02,1173.05 2097.46,1261.78C2156.33,1381.99 2177.07,1889.42 2240.01,1774.53C2302.95,1659.64 2574.93,841.578 2475.11,572.436C2375.29,303.294 1931.66,128.813 1641.09,159.681C1350.52,190.549 919.452,499.495 731.691,757.645C543.93,1015.79 445.05,1634.84 514.527,1708.58Z" style="fill:rgb(197,129,95);fill-opacity:0.45;"/>
                <path d="M2229.72,1303.46C2232.42,1306.13 2181.4,1429.67 2174.52,1465.77C2171.02,1484.12 2190.22,1501.48 2188.42,1520.07C2186.41,1540.78 2166.08,1589.67 2162.5,1590.02C2158.91,1590.36 2167.58,1544.8 2166.9,1522.14C2166.2,1498.76 2151.58,1473.11 2158.28,1449.75C2168.75,1413.3 2227.01,1300.79 2229.72,1303.46Z" style="fill:rgb(191,109,75);"/>
                <path d="M925.484,1261.43C923.297,1258.9 994.262,1423.41 1001.99,1477.94C1007.36,1515.8 974.504,1562.45 971.878,1588.64C970.262,1604.76 982.268,1621.49 986.239,1635.09C989.64,1646.74 995.071,1677.59 995.705,1670.24C996.339,1662.89 987.158,1617.31 990.043,1590.98C993.279,1561.45 1021.59,1526.16 1015.12,1493.11C1004.36,1438.19 927.671,1263.96 925.484,1261.43Z" style="fill:rgb(197,129,95);"/>
                <path d="M966.899,1406.5C975.2,1381.22 987.669,1288.05 996.446,1228.58C1006.3,1161.76 999.444,1065.19 1026.05,1005.63C1051.48,948.693 1100.58,899.548 1156.09,871.159C1232.22,832.231 1369.16,778.195 1482.8,772.057C1613.85,764.978 1840.02,790.79 1942.37,828.687C2014.36,855.341 2068.55,947.347 2096.92,999.434C2119.65,1041.19 2103.17,1102.29 2112.55,1141.21C2120.39,1173.72 2147.38,1200.01 2153.21,1232.94C2162.07,1282.98 2160.53,1417.46 2165.69,1441.4C2170.42,1463.36 2173.88,1387.75 2184.18,1376.6C2193.99,1365.98 2216.05,1365.67 2227.5,1374.49C2282.76,1417.06 2461.46,1738.99 2515.77,1632.02C2570.07,1525.06 2674.66,979.246 2553.34,732.695C2432.02,486.143 2063.37,200.848 1787.85,152.711C1512.34,104.575 1072.3,184.338 900.267,443.877C697.938,749.132 576.023,1835.26 573.88,1984.24C571.736,2133.22 825.278,1438.4 887.405,1337.74C900.171,1317.06 933.391,1368.8 946.639,1380.26C954.997,1387.49 963.451,1417 966.899,1406.5Z"/>
                <clipPath id="_clip3">
                    <path d="M966.899,1406.5C975.2,1381.22 987.669,1288.05 996.446,1228.58C1006.3,1161.76 999.444,1065.19 1026.05,1005.63C1051.48,948.693 1100.58,899.548 1156.09,871.159C1232.22,832.231 1369.16,778.195 1482.8,772.057C1613.85,764.978 1840.02,790.79 1942.37,828.687C2014.36,855.341 2068.55,947.347 2096.92,999.434C2119.65,1041.19 2103.17,1102.29 2112.55,1141.21C2120.39,1173.72 2147.38,1200.01 2153.21,1232.94C2162.07,1282.98 2160.53,1417.46 2165.69,1441.4C2170.42,1463.36 2173.88,1387.75 2184.18,1376.6C2193.99,1365.98 2216.05,1365.67 2227.5,1374.49C2282.76,1417.06 2461.46,1738.99 2515.77,1632.02C2570.07,1525.06 2674.66,979.246 2553.34,732.695C2432.02,486.143 2063.37,200.848 1787.85,152.711C1512.34,104.575 1072.3,184.338 900.267,443.877C697.938,749.132 576.023,1835.26 573.88,1984.24C571.736,2133.22 825.278,1438.4 887.405,1337.74C900.171,1317.06 933.391,1368.8 946.639,1380.26C954.997,1387.49 963.451,1417 966.899,1406.5Z"/>
                </clipPath>
                <g clip-path="url(#_clip3)">
                    <path d="M2109.81,895.999C2147.35,907.806 2146.11,720.054 2106.63,647.058C2065.34,570.709 1953.89,463.094 1862.06,437.902C1770.24,412.71 1552.46,472.853 1555.68,495.906C1558.91,518.959 1790.74,510.759 1881.4,576.219C1973.75,642.901 2072.27,884.193 2109.81,895.999Z" style="fill:white;fill-opacity:0.16;"/>
                    <path d="M1810.97,701.05C1809.8,689.095 1766.24,586.427 1714.55,574.05C1631.06,554.06 1308.85,569.151 1310.03,581.106C1311.2,593.061 1638.11,625.791 1721.6,645.782C1755.66,653.938 1812.15,713.005 1810.97,701.05Z" style="fill:white;fill-opacity:0.16;"/>
                    <path d="M841.235,1002.6C876.27,917.488 1001.94,750.69 1091.43,661.007C1173.28,578.985 1380.47,438.039 1378.19,464.505C1375.9,490.972 1160.55,701.945 1077.72,819.808C1000.48,929.723 920.636,1141.22 881.221,1171.68C841.806,1202.15 819.19,1056.16 841.235,1002.6Z" style="fill:white;fill-opacity:0.16;"/>
                    <path d="M2134.44,1292.98L2165.72,1014.25L2054.8,1149.35L1885.57,920.396L1803.18,755.293L1684.07,689.785C1684.07,689.785 1698.22,719.561 1719.06,805.168C1739.9,890.774 1636.43,999.458 1636.43,999.458L1492.02,720.957C1492.02,720.957 1510.56,899.5 1513.49,927.793C1516.41,956.087 1381.18,950.121 1381.18,950.121C1381.18,950.121 1279.92,760.593 1271.88,746.916C1263.83,733.239 1113.38,787.143 1113.38,787.143L1230.04,866.791L1127.06,1030.11L1016.03,977.816C1016.03,977.816 1021.67,1057.46 1031.32,1092.06C1040.97,1126.65 2134.44,1292.98 2134.44,1292.98Z" style="fill:rgb(128,128,128);fill-opacity:0.26;"/>
                </g>
                <path d="M1437.74,1244.94C1456.38,1249.92 1451.89,1300.4 1432.72,1302.6C1381.75,1308.45 1196.13,1275.12 1131.89,1280.03C1098.88,1282.56 1065.48,1321.53 1047.29,1332.05C1039.51,1336.55 1017.66,1350.59 1022.74,1343.18C1035.51,1324.51 1072.26,1232.31 1123.95,1220.07C1193.12,1203.69 1386.28,1231.18 1437.74,1244.94Z"/>
                <path d="M1672.52,1225.39C1650.77,1231.45 1649,1289.38 1671.27,1293.12C1716.48,1300.72 1874.74,1266.76 1943.77,1270.96C1993.46,1273.98 2080.28,1328.67 2085.41,1318.28C2090.54,1307.89 2025.24,1220.05 1974.53,1208.64C1905.71,1193.16 1723.07,1211.31 1672.52,1225.39Z"/>
                <path d="M1193.96,2419.55C1266.52,2449.06 1362.87,2605.92 1385.45,2679.68C1404.07,2740.51 1371,2816.98 1329.45,2862.14C1287.9,2907.3 1187.59,2999.4 1136.15,2950.66C1072.93,2890.74 940.453,2591.17 950.088,2502.65C959.381,2417.27 1121.4,2390.04 1193.96,2419.55Z" style="fill:rgb(197,129,95);fill-opacity:0.38;"/>
                <path d="M1076.79,2285.97C1071.84,2254.76 1061.7,2187.71 1092.72,2192.54C1123.74,2197.37 1207.61,2272.23 1262.92,2314.94C1329.67,2366.48 1430.58,2470.04 1493.23,2501.79C1536.53,2523.73 1594.98,2526.28 1638.8,2505.41C1701.56,2475.53 1816.8,2388.6 1869.79,2322.49C1941.51,2233.02 1962.04,2210.49 2005.65,2153.48C2048.98,2096.84 2113.88,1991.99 2131.46,1980.43C2149.03,1968.86 2129.45,2054.03 2111.12,2084.1C2049.99,2184.35 1845.25,2474.22 1764.68,2581.92C1724.36,2635.81 1677.53,2704.89 1627.72,2730.26C1579.61,2754.77 1515.75,2754.69 1465.8,2734.19C1409.21,2710.97 1342.28,2644.39 1288.18,2590.91C1231.42,2534.81 1160.51,2448.41 1125.27,2397.59C1102.16,2364.25 1082.21,2320.14 1076.79,2285.97Z" style="fill:rgb(197,129,95);"/>
                <path d="M1051.47,1687.72C1064.91,1684.79 1080.36,1698.82 1085,1711.77C1093.21,1734.69 1091.05,1788.3 1100.72,1825.23C1118.05,1891.39 1182.7,2019.86 1188.96,2108.72C1194.92,2193.44 1190.21,2388.14 1138.27,2358.41C1086.33,2328.69 903.543,2034.36 877.311,1930.37C859.245,1858.75 951.853,1774.91 980.88,1734.47C997.337,1711.54 1034.12,1691.5 1051.47,1687.72Z" style="fill:rgb(197,129,95);fill-opacity:0.34;"/>
            </g>
            <path d="M1310.38,2119.28C1335.34,2166.85 1388.98,2273.61 1460.5,2294.64C1532.02,2315.68 1664.21,2285.12 1739.49,2245.49C1814.77,2205.85 1906.4,2072.91 1912.2,2056.84C1917.99,2040.77 1827.01,2132.45 1774.25,2149.08C1718.27,2166.72 1639.6,2181.81 1576.26,2162.7C1499.01,2139.39 1355.07,2016.47 1310.75,2009.23C1274.55,2003.32 1293.34,2086.8 1310.38,2119.28Z" style="fill:rgb(197,129,95);fill-opacity:0.6;"/>
            <path d="M1234.88,1987.73C1234.88,1987.73 1386.15,1925.09 1431.59,1916.75C1457.41,1912 1481.37,1935.35 1507.53,1937.65C1545.23,1940.96 1608.63,1927.08 1657.81,1936.62C1789.07,1962.09 1831.14,2008.98 1831.14,2008.98C1831.14,2008.98 1753.59,2106.72 1678.89,2159.91C1645.29,2183.85 1618.25,2209.52 1581.3,2214.79C1542.53,2220.32 1484.41,2218.07 1446.29,2193.08C1388.56,2155.23 1234.88,1987.73 1234.88,1987.73Z" style="fill:rgb(147,79,68);"/>
            <path d="M1278.09,1988.96C1278.09,1988.96 1435.77,1995.71 1492.17,1998.76C1533.64,2001.01 1574.97,2005.96 1616.48,2007.28C1664.12,2008.79 1745.94,2006.03 1778.02,2007.86C1788.88,2008.48 1818.47,2012.98 1808.96,2018.27C1794.91,2026.09 1730.95,2039.36 1693.72,2054.77C1655.59,2070.56 1614.57,2103.91 1580.14,2112.99C1550.16,2120.91 1515.87,2121.04 1487.19,2109.26C1436.85,2088.59 1278.09,1988.96 1278.09,1988.96Z" style="fill:white;"/>
            <clipPath id="_clip4">
                <path d="M1278.09,1988.96C1278.09,1988.96 1435.77,1995.71 1492.17,1998.76C1533.64,2001.01 1574.97,2005.96 1616.48,2007.28C1664.12,2008.79 1745.94,2006.03 1778.02,2007.86C1788.88,2008.48 1818.47,2012.98 1808.96,2018.27C1794.91,2026.09 1730.95,2039.36 1693.72,2054.77C1655.59,2070.56 1614.57,2103.91 1580.14,2112.99C1550.16,2120.91 1515.87,2121.04 1487.19,2109.26C1436.85,2088.59 1278.09,1988.96 1278.09,1988.96Z"/>
            </clipPath>
            <g clip-path="url(#_clip4)">
                <path d="M1369.71,2031.13C1385.17,2038.74 1461.29,2046.09 1461.29,2046.09L1464.7,2039.18L1469.82,2046.81C1469.82,2046.81 1518.95,2046.05 1543.52,2046.21C1579.81,2046.44 1687.56,2048.23 1687.56,2048.23L1700.25,2039.43L1709.19,2045.28C1709.19,2045.28 1746.21,2038.72 1751.7,2028.85C1759.49,2014.87 1782.24,1990.84 1795.13,1978.15C1805.2,1968.23 1824.44,1939.33 1829.04,1952.69C1835.99,1972.89 1847.83,2063.74 1836.8,2099.35C1826.96,2131.12 1788.1,2173.58 1762.86,2166.35C1737.62,2159.11 1685.37,2055.93 1685.37,2055.93C1685.37,2055.93 1625.24,2059.09 1612.38,2060.32C1610.67,2060.48 1608.2,2063.3 1608.2,2063.3C1608.2,2063.3 1604.61,2059.65 1602.27,2059.51C1577.38,2057.93 1484.01,2053.91 1458.9,2053.83C1455.91,2053.82 1451.6,2059.03 1451.6,2059.03L1449.37,2052.53C1449.37,2052.53 1402.42,2032.96 1388.52,2047.82C1371.68,2065.82 1372.57,2167.01 1348.34,2160.53C1324.11,2154.05 1255.77,2050.44 1243.15,2008.94C1233.29,1976.49 1251.56,1921.89 1272.64,1911.55C1293.73,1901.2 1388.33,1946.71 1369.65,1946.86C1321.16,1947.23 1325.32,1970.1 1329.71,1983.44C1335.34,2000.59 1360.9,2026.79 1369.71,2031.13Z"/>
            </g>
            <g>
                <path d="M1131.54,1447.35C1153.25,1433.9 1196.67,1406.98 1237.4,1404.91C1298.74,1401.8 1341.58,1419.8 1367.26,1450.72" style="fill:none;stroke:black;stroke-width:19px;"/>
                <path d="M1122.27,1453.92C1122.27,1453.92 1189.99,1407.39 1255.39,1406.1C1297.39,1405.27 1377.81,1442.12 1374.35,1453.76C1370.89,1465.39 1276.64,1475.89 1234.63,1475.92C1196.47,1475.94 1122.27,1453.92 1122.27,1453.92Z" style="fill:white;"/>
                <clipPath id="_clip5">
                    <path d="M1122.27,1453.92C1122.27,1453.92 1189.99,1407.39 1255.39,1406.1C1297.39,1405.27 1377.81,1442.12 1374.35,1453.76C1370.89,1465.39 1276.64,1475.89 1234.63,1475.92C1196.47,1475.94 1122.27,1453.92 1122.27,1453.92Z"/>
                </clipPath>
                <g clip-path="url(#_clip5)">
                    <g transform="matrix(1.66393,0,0,1.52459,-833.837,-518.384)">
                        <circle cx="1252.66" cy="1278.91" r="37.515" style="fill:rgb(110,59,0);"/>
                    </g>
                </g>
            </g>
            <g>
                <g transform="matrix(-1,0,0,1,3124.41,-16.1631)">
                    <path d="M1138.16,1453.16C1157.25,1440.66 1195.42,1415.65 1240.59,1406.9C1300.88,1395.23 1335.3,1423.17 1366.65,1452.1" style="fill:none;stroke:black;stroke-width:19px;"/>
                </g>
                <g transform="matrix(-1,0,0,1,3123.14,-13.2582)">
                    <path d="M1122.27,1453.92C1122.27,1453.92 1202.38,1405.77 1267.78,1404.47C1309.79,1403.64 1379.88,1441.85 1374.35,1453.76C1368.83,1465.66 1276.64,1475.89 1234.63,1475.92C1196.47,1475.94 1122.27,1453.92 1122.27,1453.92Z" style="fill:white;"/>
                    <clipPath id="_clip6">
                        <path d="M1122.27,1453.92C1122.27,1453.92 1202.38,1405.77 1267.78,1404.47C1309.79,1403.64 1379.88,1441.85 1374.35,1453.76C1368.83,1465.66 1276.64,1475.89 1234.63,1475.92C1196.47,1475.94 1122.27,1453.92 1122.27,1453.92Z"/>
                    </clipPath>
                    <g clip-path="url(#_clip6)">
                        <g transform="matrix(1.66393,0,0,1.52459,-833.837,-518.384)">
                            <circle cx="1252.66" cy="1278.91" r="37.515" style="fill:rgb(110,59,0);"/>
                        </g>
                    </g>
                </g>
            </g>
            <path d="M1467.72,1452.63C1461.06,1483.08 1443.65,1559.3 1424.42,1595.39C1408.25,1625.74 1356.4,1657.44 1352.33,1669.17C1348.25,1680.91 1388.25,1676.58 1399.97,1665.8C1420.27,1647.11 1460.26,1597.01 1474.17,1557.03C1488.08,1517.05 1489.61,1464.71 1483.44,1425.91C1477.6,1389.14 1440.35,1326.44 1437.17,1324.25C1433.99,1322.05 1459.28,1391.34 1464.37,1412.74C1467.46,1425.72 1470.57,1439.6 1467.72,1452.63Z" style="fill:rgb(197,129,95);"/>
            <path d="M1614.93,1435.35C1619.85,1462.5 1629.69,1516.79 1645.24,1554.83C1661.59,1594.8 1698.12,1640.53 1713.01,1675.2C1724.88,1702.84 1733.86,1743.99 1734.61,1762.84C1735.01,1773.06 1726.91,1784.3 1717.51,1788.33C1705.55,1793.46 1681.13,1793.69 1662.81,1793.61C1642.27,1793.53 1612.64,1784.26 1594.26,1787.81C1577.97,1790.96 1568.2,1809.9 1552.54,1814.95C1536.88,1820 1515.18,1824.97 1500.3,1818.11C1485.42,1811.25 1477.03,1781.76 1463.26,1773.79C1450.07,1766.16 1429.54,1768.62 1417.67,1770.31C1408.1,1771.67 1401.5,1785.96 1392.05,1783.92C1381.68,1781.68 1361.76,1768.56 1355.43,1756.85C1349.1,1745.13 1352.59,1725.91 1354.06,1713.63C1355.35,1702.99 1366.34,1672.63 1364.3,1683.15C1361.85,1695.81 1336.42,1766.77 1339.34,1789.61C1341.55,1806.92 1365.49,1814.08 1381.83,1820.19C1399.91,1826.95 1426.73,1823.08 1447.82,1830.17C1469.71,1837.54 1488.61,1864.8 1513.21,1864.39C1538.34,1863.97 1568.6,1835.38 1598.6,1827.66C1629.74,1819.63 1676.94,1820.91 1700.06,1816.26C1713.38,1813.58 1730.42,1815.93 1737.34,1799.77C1784.89,1688.71 1661.01,1547.08 1654.19,1539.13" style="fill:rgb(191,109,75);fill-opacity:0.39;"/>
            <path d="M1369.56,1798.39C1370.32,1803.9 1394.06,1808.72 1407.08,1810.28C1420.52,1811.89 1436.57,1803.38 1450.17,1808.05C1465.16,1813.19 1478.53,1837.46 1496.98,1841.11C1515.43,1844.76 1541.19,1837.58 1560.88,1829.97C1580.57,1822.35 1600.32,1799.98 1615.12,1795.42C1626.35,1791.95 1637.99,1804.16 1649.64,1802.6C1661.59,1800.99 1689.17,1793.05 1686.83,1785.76C1684.48,1778.48 1651.99,1759.3 1635.57,1758.88C1619.16,1758.46 1603.59,1774.24 1588.34,1783.25C1572.05,1792.88 1553.49,1810.93 1537.84,1816.67C1524.26,1821.64 1506.18,1826.14 1494.46,1817.67C1481.46,1808.28 1475.22,1767.06 1459.9,1760.32C1444.58,1753.58 1417.6,1770.88 1402.54,1777.23C1390.51,1782.3 1368.81,1792.88 1369.56,1798.39Z" style="fill:rgb(168,93,55);"/>
            <path d="M1499.25,1848.31C1486.5,1858.76 1485.55,1897.62 1489.49,1911.79C1493.03,1924.56 1510.31,1932.07 1522.85,1933.36C1535.4,1934.65 1558.06,1932.62 1564.77,1919.53C1571.95,1905.49 1576.9,1861 1565.99,1849.13C1555.07,1837.26 1512,1837.87 1499.25,1848.31Z" style="fill:rgb(199,134,100);"/>
            <g>
                <path d="M932.193,1442.43C942.57,1384.81 986.897,1304.39 1049.29,1290.95C1129.82,1273.61 1346.14,1306.5 1415.43,1338.35C1461.47,1359.51 1488.4,1437.08 1465.03,1482.04C1432.5,1544.61 1299.94,1688.02 1220.28,1713.79C1142.36,1738.99 1035.04,1681.88 987.022,1636.65C939.008,1591.43 921.815,1500.05 932.193,1442.43Z" style="fill:rgb(105,186,201);fill-opacity:0.24;stroke:black;stroke-width:19px;"/>
                <g transform="matrix(-1,0,0,1,3079.64,-26.6696)">
                    <path d="M932.193,1442.43C942.57,1384.81 986.897,1304.39 1049.29,1290.95C1129.82,1273.61 1346.14,1306.5 1415.43,1338.35C1461.47,1359.51 1488.4,1437.08 1465.03,1482.04C1432.5,1544.61 1299.94,1688.02 1220.28,1713.79C1142.36,1738.99 1035.04,1681.88 987.022,1636.65C939.008,1591.43 921.815,1500.05 932.193,1442.43Z" style="fill:rgb(105,186,201);fill-opacity:0.24;stroke:black;stroke-width:19px;"/>
                </g>
                <path d="M1470.14,1410.56C1467.28,1394.41 1461.57,1362.11 1478.81,1353.78C1499.05,1344 1570.65,1343.62 1591.62,1351.86C1608.07,1358.32 1605.8,1388.25 1604.67,1403.22" style="fill:none;stroke:black;stroke-width:19px;"/>
                <path d="M1375.28,1319.55C1393.34,1309.88 1429.47,1290.53 1429.47,1290.53L1640.21,1281.45C1640.21,1281.45 1681.57,1290.94 1702.25,1295.69" style="fill:none;stroke:black;stroke-width:19px;"/>
                <path d="M2065.68,1282.3C2104.61,1309.77 2143.53,1337.23 2182.46,1364.7" style="fill:none;stroke:black;stroke-width:19px;"/>
            </g>
        </g>
    </g>
</svg>
