<svg xmlns="http://www.w3.org/2000/svg" viewBox="0 0 1920 1174.888"><defs><style>.cls-1{fill:#dbd8e3;opacity:0.5;}</style></defs><g id="Layer_2" data-name="Layer 2"><g id="Layer_2-2" data-name="Layer 2"><path class="cls-1" d="M0,61.045s51.272,8.591,117.615.395c73.967-9.138,78.558-35.68,134.211-39.766,84.7-6.22,100.613,53.31,195.518,51.365,59.363-1.217,54.986-24.546,122.613-24.854,65.352-.3,92.752,21.381,139.182,3.313C747.464,36.585,740.653,17.2,772.1,5.1c73.58-28.3,128.5,71.033,222.028,54.679C1052.593,49.56,1063.218,5.14,1106.8,13.389c52.89,10.01,51.767,78.17,102.73,91.131,57.642,14.66,83.789-66.249,169.007-72.9,77.784-6.075,92.141,58.511,176.361,56.336,77.576-2,128.017-53.262,173.252-61.307C1770.179,19.17,1920,64.354,1920,64.354V1174.888H0Z"/></g></g></svg>